<svg width="164" height="51" viewBox="0 0 164 51" fill="none" xmlns="http://www.w3.org/2000/svg">
<path d="M3.276 29.508H1.008V17.988H3.276V15.792H5.508V13.56H12.564V15.792H14.76V17.988H16.992V20.616H14.4V18.384H12.168V16.152H5.868V18.384H3.672V29.148H5.868V31.344H12.168V29.148H14.4V26.916H16.992V29.508H14.76V31.74H12.564V34.008H5.508V31.74H3.276V29.508ZM21.276 29.508H19.008V17.988H21.276V15.792H23.508V13.56H30.564V15.792H32.76V17.988H34.992V20.616H32.4V18.384H30.168V16.152H23.868V18.384H21.672V29.148H23.868V31.344H30.168V29.148H32.4V26.916H34.992V29.508H32.76V31.74H30.564V34.008H23.508V31.74H21.276V29.508ZM39.276 29.508H37.008V13.56H39.672V29.148H41.868V31.344H48.168V29.148H50.4V13.56H52.992V34.008H50.4V31.74H48.564V34.008H41.508V31.74H39.276V29.508ZM55.008 6.864H57.672V15.792H59.508V13.56H66.564V15.792H68.76V17.988H70.992V34.008H68.4V18.384H66.168V16.152H59.868V18.384H57.672V34.008H55.008V6.864ZM73.008 24.684H75.276V22.452H84.168V16.152H75.672V20.616H73.008V15.792H75.276V13.56H84.564V15.792H86.76V31.344H88.992V34.008H86.4V31.74H82.332V34.008H75.276V31.74H73.008V24.684ZM81.936 31.344V29.148H84.168V25.08H75.672V31.344H81.936ZM93.276 29.508H91.008V17.988H93.276V15.792H95.508V13.56H102.564V15.792H104.76V17.988H106.992V20.616H104.4V18.384H102.168V16.152H95.868V18.384H93.672V29.148H95.868V31.344H102.168V29.148H104.4V26.916H106.992V29.508H104.76V31.74H102.564V34.008H95.508V31.74H93.276V29.508ZM109.008 6.864H111.672V22.452H113.508V20.22H115.704V17.988H120.168V15.792H122.4V13.56H124.992V16.152H122.76V18.384H120.564V20.616H116.1V22.848H113.868V24.684H116.1V26.916H120.564V29.148H122.76V31.344H124.992V34.008H122.4V31.74H120.168V29.508H115.704V27.276H113.508V25.08H111.672V34.008H109.008V6.864ZM127.008 26.916H129.672V31.344H140.4V25.08H129.276V22.848H127.008V15.792H129.276V13.56H140.76V15.792H142.992V20.616H140.4V16.152H129.672V22.452H140.76V24.684H142.992V31.74H140.76V34.008H129.276V31.74H127.008V26.916Z" fill="#E2E2E2"/>
<path d="M79.52 47V41.924L87.872 33.86C88.856 32.9 89.588 32.012 90.068 31.196C90.572 30.38 90.824 29.492 90.824 28.532C90.824 27.476 90.536 26.66 89.96 26.084C89.408 25.508 88.64 25.22 87.656 25.22C86.576 25.22 85.724 25.544 85.1 26.192C84.5 26.816 84.2 27.692 84.2 28.82H78.8C78.8 27.092 79.16 25.604 79.88 24.356C80.624 23.084 81.668 22.1 83.012 21.404C84.356 20.708 85.94 20.36 87.764 20.36C89.468 20.36 90.944 20.684 92.192 21.332C93.464 21.956 94.448 22.832 95.144 23.96C95.864 25.088 96.224 26.42 96.224 27.956C96.224 29.66 95.804 31.292 94.964 32.852C94.124 34.412 92.78 36.044 90.932 37.748L86.18 42.14H96.512V47H79.52ZM109.422 47.36C107.646 47.36 106.11 47.036 104.814 46.388C103.518 45.716 102.51 44.792 101.79 43.616C101.094 42.416 100.746 41.024 100.746 39.44V28.28C100.746 26.696 101.094 25.316 101.79 24.14C102.51 22.94 103.518 22.016 104.814 21.368C106.11 20.696 107.634 20.36 109.386 20.36C111.162 20.36 112.686 20.696 113.958 21.368C115.254 22.016 116.25 22.94 116.946 24.14C117.666 25.316 118.026 26.696 118.026 28.28V39.44C118.026 41.024 117.666 42.416 116.946 43.616C116.25 44.792 115.254 45.716 113.958 46.388C112.686 47.036 111.174 47.36 109.422 47.36ZM109.386 42.68C110.514 42.68 111.39 42.392 112.014 41.816C112.662 41.24 112.986 40.448 112.986 39.44V28.28C112.986 27.272 112.662 26.48 112.014 25.904C111.39 25.328 110.514 25.04 109.386 25.04C108.258 25.04 107.37 25.328 106.722 25.904C106.098 26.48 105.786 27.272 105.786 28.28V39.44C105.786 40.448 106.11 41.24 106.758 41.816C107.406 42.392 108.282 42.68 109.386 42.68ZM109.386 36.344C108.642 36.344 108.03 36.104 107.55 35.624C107.094 35.144 106.866 34.52 106.866 33.752C106.866 32.984 107.094 32.372 107.55 31.916C108.03 31.46 108.642 31.232 109.386 31.232C110.154 31.232 110.766 31.46 111.222 31.916C111.678 32.372 111.906 32.984 111.906 33.752C111.906 34.52 111.678 35.144 111.222 35.624C110.766 36.104 110.154 36.344 109.386 36.344ZM122.692 47V41.924L131.044 33.86C132.028 32.9 132.76 32.012 133.24 31.196C133.744 30.38 133.996 29.492 133.996 28.532C133.996 27.476 133.708 26.66 133.132 26.084C132.58 25.508 131.812 25.22 130.828 25.22C129.748 25.22 128.896 25.544 128.272 26.192C127.672 26.816 127.372 27.692 127.372 28.82H121.972C121.972 27.092 122.332 25.604 123.052 24.356C123.796 23.084 124.84 22.1 126.184 21.404C127.528 20.708 129.112 20.36 130.936 20.36C132.64 20.36 134.116 20.684 135.364 21.332C136.636 21.956 137.62 22.832 138.316 23.96C139.036 25.088 139.396 26.42 139.396 27.956C139.396 29.66 138.976 31.292 138.136 32.852C137.296 34.412 135.952 36.044 134.104 37.748L129.352 42.14H139.684V47H122.692ZM152.558 47.36C150.734 47.36 149.126 46.988 147.734 46.244C146.366 45.476 145.298 44.408 144.53 43.04C143.762 41.672 143.378 40.088 143.378 38.288C143.378 37.088 143.606 35.78 144.062 34.364C144.518 32.924 145.118 31.592 145.862 30.368L151.766 20.72H157.778L149.786 33.176L150.038 33.32C150.566 32.552 151.238 31.964 152.054 31.556C152.894 31.148 153.83 30.944 154.862 30.944C156.23 30.944 157.43 31.28 158.462 31.952C159.494 32.6 160.298 33.524 160.874 34.724C161.45 35.9 161.738 37.28 161.738 38.864C161.738 40.568 161.354 42.056 160.586 43.328C159.818 44.6 158.75 45.596 157.382 46.316C156.014 47.012 154.406 47.36 152.558 47.36ZM152.558 42.86C153.734 42.86 154.682 42.5 155.402 41.78C156.122 41.06 156.482 40.112 156.482 38.936C156.482 37.736 156.122 36.776 155.402 36.056C154.682 35.312 153.734 34.94 152.558 34.94C151.382 34.94 150.434 35.312 149.714 36.056C148.994 36.776 148.634 37.736 148.634 38.936C148.634 40.112 148.994 41.06 149.714 41.78C150.434 42.5 151.382 42.86 152.558 42.86Z" fill="white" fill-opacity="0.35"/>
</svg>
