<svg width="109" height="108" viewBox="0 0 109 108" fill="none" xmlns="http://www.w3.org/2000/svg">
<g clip-path="url(#clip0_26_35)">
<ellipse cx="54.5" cy="54" rx="54.5" ry="54" fill="#C678DD"/>
<path d="M23.5316 67.0377H19.0097V44.0694H23.5316V39.6911H27.9817V35.2409H42.0498V39.6911H46.4282V44.0694H50.8783V49.309H45.7104V44.8589H41.2603V40.4088H28.6995V44.8589H24.3212V66.32H28.6995V70.6983H41.2603V66.32H45.7104V61.8699H50.8783V67.0377H46.4282V71.4878H42.0498V76.0097H27.9817V71.4878H23.5316V67.0377ZM54.8977 21.8906H60.2092V39.6911H63.8697V35.2409H77.9378V39.6911H82.3162V44.0694H86.7663V76.0097H81.5984V44.8589H77.1483V40.4088H64.5875V44.8589H60.2092V76.0097H54.8977V21.8906Z" fill="white"/>
</g>
<defs>
<clipPath id="clip0_26_35">
<rect width="109" height="108" fill="white"/>
</clipPath>
</defs>
</svg>
